<svg width="600" height="400" xmlns="http://www.w3.org/2000/svg"><g><line x1="5" x2="5" y1="21.073961499493432" y2="35.866261398176306" stroke="#000"></line><rect fill="#f00" x="0" y="29.314420803782724" height="4.5930428909152425" width="10"></rect></g><g><line x1="16" x2="16" y1="14.387031408307971" y2="41.40493076663283" stroke="#000"></line><rect fill="#03ae03" x="11" y="15.33265788584961" height="9.523809523809312" width="10"></rect></g><g><line x1="27" x2="27" y1="0" y2="29.719689294157583" stroke="#000"></line><rect fill="#f00" x="22" y="5.133400878081673" height="11.279972982100752" width="10"></rect></g><g><line x1="38" x2="38" y1="13.508949679162452" y2="79.02735562310058" stroke="#000"></line><rect fill="#f00" x="33" y="19.04761904761898" height="59.304289091523316" width="10"></rect></g><g><line x1="49" x2="49" y1="61.87098953056416" y2="98.2776089159068" stroke="#000"></line><rect fill="#03ae03" x="44" y="81.32387706855803" height="0.3377237419791328" width="10"></rect></g><g><line x1="60" x2="60" y1="72.81323877068573" y2="103.54609929078036" stroke="#000"></line><rect fill="#f00" x="55" y="81.25633232016227" height="12.563323201621174" width="10"></rect></g><g><line x1="71" x2="71" y1="96.18372171563662" y2="157.9196217494089" stroke="#000"></line><rect fill="#03ae03" x="66" y="97.73725092874042" height="18.980074299223247" width="10"></rect></g><g><line x1="82" x2="82" y1="68.42283012495773" y2="121.10773387369132" stroke="#000"></line><rect fill="#03ae03" x="77" y="69.098277608916" height="30.53022627490698" width="10"></rect></g><g><line x1="93" x2="93" y1="45.79533941236087" y2="74.56940222897681" stroke="#000"></line><rect fill="#f00" x="88" y="56.67004390408672" height="3.8500506585612584" width="10"></rect></g><g><line x1="104" x2="104" y1="47.95677136102681" y2="111.71901384667349" stroke="#000"></line><rect fill="#f00" x="99" y="52.617359000337814" height="51.73927727119235" width="10"></rect></g><g><line x1="115" x2="115" y1="100.57413036136467" y2="135.62985477879118" stroke="#000"></line><rect fill="#03ae03" x="110" y="103.07328605200934" height="23.843296183721918" width="10"></rect></g><g><line x1="126" x2="126" y1="135.22458628841628" y2="166.63289429246876" stroke="#000"></line><rect fill="#f00" x="121" y="136.71057075312393" height="21.952043228638956" width="10"></rect></g><g><line x1="137" x2="137" y1="137.58865248226945" y2="192.63762242485663" stroke="#000"></line><rect fill="#f00" x="132" y="147.58527524484978" height="43.09354947652815" width="10"></rect></g><g><line x1="148" x2="148" y1="143.46504559270517" y2="239.6487673083418" stroke="#000"></line><rect fill="#f00" x="143" y="177.16987504221552" height="47.28132387706856" width="10"></rect></g><g><line x1="159" x2="159" y1="215.60283687943263" y2="283.8905775075989" stroke="#000"></line><rect fill="#f00" x="154" y="232.48902397838566" height="51.19891928402558" width="10"></rect></g><g><line x1="170" x2="170" y1="267.47720364741645" y2="400" stroke="#000"></line><rect fill="#03ae03" x="165" y="271.12462006079045" height="52.75244849712931" width="10"></rect></g><g><line x1="181" x2="181" y1="271.9351570415398" y2="356.8389057750761" stroke="#000"></line><rect fill="#03ae03" x="176" y="307.39614994934124" height="9.523809523809689" width="10"></rect></g><g><line x1="192" x2="192" y1="242.755825734549" y2="345.28875379939194" stroke="#000"></line><rect fill="#f00" x="187" y="265.18068220195863" height="49.57784532252634" width="10"></rect></g><g><line x1="203" x2="203" y1="259.3042890915233" y2="341.3036136440392" stroke="#000"></line><rect fill="#f00" x="198" y="281.7966903073287" height="47.41641337386005" width="10"></rect></g><g><line x1="214" x2="214" y1="256.53495440729483" y2="352.31340763255656" stroke="#000"></line><rect fill="#03ae03" x="209" y="256.87267814927395" height="62.61398176291783" width="10"></rect></g><g><line x1="225" x2="225" y1="200.6079027355625" y2="271.2597095575819" stroke="#000"></line><rect fill="#03ae03" x="220" y="203.10705842620723" height="58.56129685916926" width="10"></rect></g><g><line x1="236" x2="236" y1="200.6079027355625" y2="271.32725430597765" stroke="#000"></line><rect fill="#03ae03" x="231" y="203.10705842620723" height="58.56129685916926" width="10"></rect></g><g><line x1="247" x2="247" y1="177.98041202296528" y2="223.16784869976365" stroke="#000"></line><rect fill="#03ae03" x="242" y="182.57345491388057" height="15.332657885849272" width="10"></rect></g><g><line x1="258" x2="258" y1="147.65281999324554" y2="181.8980074299223" stroke="#000"></line><rect fill="#03ae03" x="253" y="152.85376561972294" height="12.495778453225455" width="10"></rect></g><g><line x1="269" x2="269" y1="182.43836541708868" y2="231.47585275244867" stroke="#000"></line><rect fill="#f00" x="264" y="196.08240459304298" height="29.381965552178087" width="10"></rect></g><g><line x1="280" x2="280" y1="183.72171563660947" y2="244.17426545086133" stroke="#000"></line><rect fill="#03ae03" x="275" y="211.27997298210076" height="15.873015873015618" width="10"></rect></g><g><line x1="291" x2="291" y1="195.81222559945962" y2="230.53022627490697" stroke="#000"></line><rect fill="#f00" x="286" y="205.80884836203995" height="15.197568389057722" width="10"></rect></g><g><line x1="302" x2="302" y1="189.53056399864906" y2="234.78554542384313" stroke="#000"></line><rect fill="#03ae03" x="297" y="196.14994934143874" height="28.436339074636805" width="10"></rect></g><g><line x1="313" x2="313" y1="149.27389395474512" y2="168.65923674434322" stroke="#000"></line><rect fill="#03ae03" x="308" y="151.57041540020253" height="15.670381627828391" width="10"></rect></g><g><line x1="324" x2="324" y1="149.27389395474512" y2="168.65923674434322" stroke="#000"></line><rect fill="#03ae03" x="319" y="151.57041540020253" height="15.670381627828391" width="10"></rect></g><g><line x1="335" x2="335" y1="150.42215467747405" y2="221.41168524147255" stroke="#000"></line><rect fill="#f00" x="330" y="193.44815940560642" height="13.644039175953935" width="10"></rect></g><g><line x1="346" x2="346" y1="191.62445119891922" y2="277.2036474164134" stroke="#000"></line><rect fill="#f00" x="341" y="206.48429584599785" height="60.452549814252166" width="10"></rect></g><text x="560" y="67.40965889902068">470</text><line x1="0" y1="67.40965889902068" y2="67.40965889902068" x2="600" stroke="#000"></line><text x="560" y="337.5886524822695">430</text><line x1="0" y1="337.5886524822695" y2="337.5886524822695" x2="600" stroke="#000"></line></svg>